<svg width="162" height="168" fill="none" xmlns="http://www.w3.org/2000/svg"><path d="M97.384 10.717s-6.009 3.038-5.498 13.616c.51 10.58 3.23 13.999.623 20.208-2.607 6.207-5.611 14.187 4.195 19.508 9.807 5.322 33.444 2.218 33.5-14.569.056-16.784-12.414-17.102-15.531-24.512-3.118-7.412-5.612-21.282-17.289-14.251z" fill="#671D48"/><path d="M63.815 57.931c-2.527-2.115-3.932-3.289-4.212-3.525 0 0-4.942 3.875-6.16 3.875 0 0 .396 1.298 2.183.315a135.84 135.84 0 014.08-2.12c.274.22 1.644 1.32 4.109 3.307v-1.852z" fill="#F97D7D"/><path d="M113.359 40.83s-2.473-2.797-5.953-.568c-3.48 2.225-17.302 15.941-17.302 15.941l-26.29 1.728v3.295s25.9 1.015 28.402.318c2.5-.698 19.896-13.937 19.896-13.937s3.827-2.786 1.247-6.777z" fill="#F97D7D"/><path d="M63.815 59.39l-4.212-3.526s-4.942 3.873-6.16 3.873c0 0 .396 1.298 2.183.318 1.784-.982 4.08-2.124 4.08-2.124.274.221 1.644 1.325 4.109 3.308V59.39zM104.941 74.955C85.987 55.883 75.454 45.287 73.35 43.168c0 0-4.913-2.788-6.122 3.378-1.21 6.167-.454 42.058-.454 42.058h4.988s-.226-10.405 1.134-13.649c1.36-3.243 2.72-5.183 2.569-10.505l13.908 25.675 11.336-3.717 8.135-5.235-3.903-6.218z" fill="#F97D7D"/><path d="M93.044 62.986a1684.197 1684.197 0 01-11.468 9.62c-.387.325-.776.651-1.163.98.599 1.103 3.585 6.615 8.96 16.539l11.336-3.717 8.135-5.235-3.903-6.218-11.897-11.969z" fill="#3E0B29"/><path d="M94.605 64.555l-.344-.344-13.11 10.734.234.436 13.22-10.826zM82.184 76.856l13.588-11.127-.344-.345L81.95 76.42l.234.436z" fill="#fff"/><path d="M65.85 85.36s-.966 1.837-2.893 2.407c-1.927.57-6.858 2.47-6.858 2.47s-1.19 1.457 3.174 1.33c4.364-.126 10.771-.823 10.771-.823l-.68-5.383H65.85z" fill="#F97D7D"/><path d="M114.391 37.446l-8.676 3.357s-5.1 10.136-6.063 13.175c-.964 3.041 3.174 4.75 3.457 6.397.284 1.648-2.21 19.953-6.746 24.512l22.183 3.717s8.465-33.569-4.155-51.158z" fill="#6C1C39"/><path d="M106.151 42.539c-.038-.259.226-6.422-3.099-7.564-3.324-1.138-6.802.423-8.275-8.446-1.475-8.866 1.927-11.484 1.927-11.484s2.228 8.782 3.4 10.346c0 0 .417-2.24 1.776-2.113 1.36.127-.112 5.111-.112 5.111s5.082 5.383 8.143 5.89c3.061.505 4.082 5.003 4.082 5.003l-7.842 3.257z" fill="#F97D7D"/><path d="M119.15 98.676H72.149v-3.168h47.001v3.168z" fill="#570933"/><path d="M70.335 167.746l-.906-.059 3.628-69.802.906.059-3.628 69.802zM98.79 167.741l-.906-.049 2.948-70.626.906.049-2.948 70.626zM113.757 167.741l-3.008-70.626.909-.049 3.004 70.626-.905.049zM145.84 166.494l-5.668-70.055.903-.089 5.671 70.053-.906.091z" fill="#570933"/><path d="M76.645 68.394c0 1.326-.962 2.403-2.15 2.403H2.15C.962 70.797 0 69.72 0 68.394c0-1.328.962-2.401 2.15-2.401h72.345c1.188 0 2.15 1.074 2.15 2.4z" fill="#1F1F49"/><path d="M39.383 167.741L28.53 76.465l-7.635 91.265-1.07-.006-5.527-99.322 1.07-.033 5.092 87.733 7.444-87.74 1.067-.009 10.726 89.66L44.2 68.372l1.072-.013 8.667 90.639 8.401-90.64 1.07.052-8.928 99.323h-1.07l-8.508-88.094-4.45 88.083-1.07.019z" fill="#1F1F49"/><path d="M12.462 10.528c.908 3.351 1.768 6.718 2.596 10.096 1.142 4.662 2.62 9.62 2.849 14.478.01.226.325.229.317 0-.223-4.73-1.64-9.523-2.736-14.063-.86-3.55-1.766-7.087-2.722-10.605-.06-.218-.363-.124-.304.094zM20.997 2.376c-1.298 10.8-2.303 21.82-2.12 32.726.003.229.32.229.315 0-.183-10.906.825-21.925 2.12-32.726.03-.227-.288-.224-.315 0z" fill="#8DC63F"/><path d="M17.24 44.124h1.814v-7.975H17.24v7.975z" fill="#fff"/><path d="M19.99 36.149h-.936v7.975h.936v-7.975z" fill="#B5B5B5"/><path d="M20.734 35.627c0 .288-.202.522-.454.522h-3.287c-.253 0-.454-.234-.454-.522 0-.291.201-.525.454-.525h3.287c.252 0 .454.234.454.525zM19.96 42.789a8.329 8.329 0 00-1.346-.17s-3.83.065-5.47 2.681c-1.636 2.614-2.104 8.495-1.11 12.615.054.216.105.434.16.652h11.241c.879-5.623.159-11.294-3.475-15.778z" fill="#fff"/><path d="M24.083 45.3c-1.01-1.615-2.857-2.255-4.123-2.511 3.634 4.484 4.354 10.155 3.475 15.778h1.602l.156-.652c.997-4.12.53-10.001-1.11-12.615z" fill="#B5B5B5"/><path d="M12.193 58.567a559.216 559.216 0 001.887 7.517h7.291c.933-2.417 1.664-4.96 2.064-7.517H12.193z" fill="#fff"/><path d="M25.037 58.567h-1.602c-.4 2.557-1.131 5.1-2.064 7.517h1.776s.946-3.634 1.89-7.517zM19.99 36.585h-2.75v-.436h2.75v.436z" fill="#B5B5B5"/><path d="M20.745 8.082s-.69-2.097-1.605-2.98c-1.026-.996-2.655-1.542-2.655-1.542s.892 2.702 1.85 3.423c.953.724 1.69 1.163 2.41 1.099zM21 4.884s.414-2.17 1.5-2.883c1.088-.71 2.177-1.13 2.177-1.13s-.49 2.005-1.538 2.301c-.932.264-1.51 1.475-2.139 1.712z" fill="#8DC63F"/><path d="M20.387 8.795s.409-1.071 1.247-.797c1.161.382 2.153.097 2.911-.49.755-.584.739-.831.739-.831s-1.838-.878-3.206-.183c-1.365.691-1.54 1.37-1.69 2.3zM20.022 15.06c.086-.024.083-1.42-.72-2.279-.608-.649-1.567-.102-1.93.143-.357.245-.288 1.251.573 1.814.862.562 1.335.535 2.077.323zM14.878 18.778s-2.55-2.557-3.824-2.514c-1.277.04.787 3.308 3.824 2.514zM19.484 26.591s-1.349-2.027-2.023-1.994c-.672.035.419 2.624 2.023 1.994zM14.878 18.966s3.09.234 3.975-2.304c.524-1.51-3.561 1.004-3.975 2.304zM20.06 13.62s3.09.238 3.974-2.303c.524-1.507-3.563 1.006-3.974 2.304zM18.99 31.307s3.088.234 3.975-2.304c.524-1.507-3.564 1.006-3.975 2.304zM13.416 14.652s2.706-.487 3.674-2.611l.658-1.446s-3.386 1.664-4.332 4.057z" fill="#8DC63F"/><path d="M19.205 26.626s2.706-.49 3.674-2.61c.064-.146.59-1.303.658-1.446 0 0-3.386 1.663-4.332 4.056zM13.416 14.652s-4.031-1.308-4.958-3.246c-.93-1.938 2.386-1.69 3.485-1.338 1.097.35 2.914 2.035 1.473 4.584zM16.963 27.523s-1.537-2.105-2.628-1.494c-1.094.61-.196 1.079.148 1.308.341.229 2.87 1.198 2.87 1.198l-.39-1.012zM19.59 19.617s1.15 1.55 2.872 1.004c1.726-.543.266-1.668 0-2.07-.26-.4-2.112-1.184-2.698-.443-.586.742-.175 1.51-.175 1.51zM15.8 22.855s-.038-.81-.253-.804c-.715.016-2.599-.143-3.023.759-.425.904 1.131 2.22 3.276.045z" fill="#8DC63F"/><path d="M16.095 23.523s1.522.98 2.116-.428c.696-1.655.475-1.87.145-2.223-.275-.294-1.304-.366-2.26 0-.836.32-.898 1.655 0 2.65z" fill="#8DC63F"/><path d="M17.501 30.909s-.992-.55-1.951-.162c-.962.388.661 1.418 1.994.59.642-.402-.043-.428-.043-.428z" fill="#42427F"/><path d="M116.769 81.469c.342-.382-44.878 0-44.878 0s-6.988-.444-6.252 8.042c.737 8.49 7.257 56.057 7.257 56.057h3.515s.451-14.44 1.473-19.382c1.021-4.939 5.1-22.297-2.04-30.657 3.572.014 32.14.114 35.711.127 0 0 13.142 1.752 8.412-14.357l-3.198.17z" fill="#F97D7D"/><path d="M119.967 81.3c-1.919.099-2.983.156-3.198.169.186-.21-13.319-.188-25.56-.13 1.241 4.794 2.625 9.54 4.084 14.26l16.262.057s13.142 1.752 8.412-14.357z" fill="#CA1056"/><path d="M97.508 95.608h.478c-2.445-8.568-3.805-13.329-4.077-14.28h-.475c.543 1.907 1.902 6.665 4.074 14.28zM99.567 95.613l.478.003-4.08-14.298c-.158.003-.32.003-.475.003.542 1.906 1.902 6.67 4.077 14.292z" fill="#fff"/><path d="M72.896 145.568s-.965 1.838-2.892 2.409c-1.927.57-6.859 2.468-6.859 2.468s-1.19 1.459 3.174 1.332c4.365-.126 10.772-.824 10.772-.824-.046-.36-.274-2.155-.68-5.385h-3.515z" fill="#F97D7D"/><path d="M74.495 67.258H40.998c-.546 0-.903-.396-1.091-.929-3.478-9.802-6.956-19.605-10.43-29.405-.54-1.52 1.652-2.175 2.184-.675 3.478 9.802 6.956 19.605 10.43 29.404-.362-.31-.728-.619-1.093-.928h33.497c1.462 0 1.462 2.533 0 2.533z" fill="#fff"/><path d="M63.202 61.43l-4.214-3.526s-4.94 3.876-6.16 3.876c0 0 .398 1.298 2.182.315a131.35 131.35 0 014.083-2.12c.274.22 1.644 1.32 4.109 3.304V61.43z" fill="#F97D7D"/><path d="M112.746 44.328s-2.472-2.796-5.953-.57c-3.48 2.228-17.305 15.944-17.305 15.944l-26.286 1.729v3.294s25.9 1.012 28.399.318c2.502-.698 19.898-13.937 19.898-13.937s3.824-2.786 1.247-6.778z" fill="#F97D7D"/><path d="M63.202 62.887c-2.529-2.116-3.932-3.29-4.214-3.524 0 0-4.94 3.873-6.16 3.873 0 0 .398 1.298 2.182.318a134.416 134.416 0 014.083-2.124c.274.221 1.644 1.325 4.109 3.308v-1.851z" fill="#F97D7D"/><path d="M102.48 21.184s-.266-7.81-4.236-10.957a63.22 63.22 0 01-.736.414s4.19 4.754 3.878 10.804c.218-.051.873-.21 1.094-.261z" fill="#000"/><path d="M87.884 82.163c-4.02 0-7.66-.45-9.253-2.064a2.852 2.852 0 01-.85-1.984c-.026-.953-.01-1.983.006-2.98.048-3.208.1-6.523-1.21-7.885-.497-.52-1.16-.73-2.028-.644l-.03-.363c.954-.094 1.72.153 2.282.737 1.416 1.473 1.365 4.875 1.314 8.161-.016.993-.03 2.019-.005 2.963.018.673.26 1.236.741 1.723 2.623 2.657 11.61 1.99 17.56 1.545 1.696-.126 3.163-.234 4.265-.256.076-.002.683-.013.758-.016 5.636-.102 10.503-.19 10.455-5.103-.006-.842.027-1.811.064-2.837.137-3.91.309-8.78-1.714-11.065-.826-.934-1.927-1.37-3.387-1.319-1.365.038-2.496-.446-3.351-1.458-2.228-2.633-1.86-7.843-1.841-8.064 0-1.54 0-9.227-.003-23.064h.331v23.077c-.005.07-.374 5.286 1.752 7.8.788.932 1.828 1.386 3.102 1.343 1.531-.045 2.752.431 3.63 1.427 2.123 2.4 1.949 7.356 1.809 11.337-.035 1.02-.07 1.986-.062 2.82.049 5.276-5.211 5.373-10.779 5.475-.076 0-.683.013-.758.013-1.091.022-2.556.132-4.25.259-2.644.196-5.691.422-8.548.422z" fill="#FFFEFF"/><path d="M96.667 25.049c0 3.106 2.252 5.623 5.031 5.623s5.031-2.517 5.031-5.623c0-3.103-2.252-5.623-5.031-5.623-2.78 0-5.031 2.52-5.031 5.623z" fill="#231F20"/><path d="M97.879 25.049c0 2.358 1.709 4.269 3.819 4.269 2.109 0 3.821-1.911 3.821-4.269s-1.712-4.269-3.821-4.269c-2.11 0-3.82 1.911-3.82 4.269z" fill="#414042"/><path d="M99.725 25.049c0 1.22.884 2.207 1.973 2.207 1.091 0 1.975-.988 1.975-2.207 0-1.22-.884-2.207-1.975-2.207-1.089 0-1.973.988-1.973 2.207z" fill="#58595B"/><path d="M125.539 30.742c.44-2.493 2.66-4.53 4.931-4.53h21.479c2.273 0 3.776 2.04 3.343 4.532l-11.046 63.4c-.432 2.492-2.647 4.532-4.918 4.532h-21.669c-2.271 0-3.771-2.04-3.33-4.53l11.21-63.404z" fill="#9B2468"/><path d="M127.968 30.742c.441-2.493 2.661-4.53 4.932-4.53h21.478c2.274 0 3.776 2.04 3.343 4.532l-11.045 63.4c-.433 2.492-2.648 4.532-4.921 4.532h-21.667c-2.271 0-3.77-2.04-3.33-4.53l11.21-63.404z" fill="#570933"/><path d="M121.859 31.406c-.013.17-.027.337-.045.506h39.388l.048-.506h-39.391zM119.922 41.67c-.033.145-.062.29-.094.438l-.008.067h39.605c.046-.17.092-.339.14-.506h-39.643zM117.952 51.93l-.065.258c-.021.083-.048.167-.07.247h38.907c.041-.17.084-.336.127-.506h-38.899zM115.218 62.19c-.04.169-.08.339-.123.508h39.167c.041-.17.081-.339.119-.508h-39.163zM112.628 72.452c-.046.167-.089.337-.132.506h39.514c.038-.17.073-.339.111-.506h-39.493zM150.038 82.712h-39.746v.51h39.646c.035-.17.067-.34.1-.51zM148.103 92.975h-37.811v.506h37.719c.03-.17.059-.339.092-.506z" fill="#A97C50"/></svg>